<svg xmlns="http://www.w3.org/2000/svg" width="1620" height="918" viewBox="0 0 1620 918">
<rect width="100%" height="100%" fill="#02030a"/>
<style>text{font-family:"JetBrains Mono","Cascadia Mono","SFMono-Regular",Consolas,monospace;font-size:14px;dominant-baseline:text-before-edge;white-space:pre}</style>
<text x="0" y="0" fill="#e8fbff">   ELITE TUI // NEON EXODUS  SCORE   0                                      &lt;&gt; FLIGHT // YELLOW &lt;&gt;                                    ASCII GLYPHS  EDGE ON  FILL OFF  INV OFF</text>
<text x="999" y="17" fill="#e8fbff">[48;2;2;3;10m</text>
<text x="1494" y="17" fill="#e8fbff">────────────╮</text>
<text x="657" y="34" fill="#e8fbff">[38;2;46;162;164m</text>
<text x="1494" y="34" fill="#e8fbff">/ LAVE      │</text>
<text x="324" y="51" fill="#e8fbff">[48;2;2;3;10m</text>
<text x="1449" y="51" fill="#e8fbff">[7;142H          │</text>
<text x="981" y="68" fill="#e8fbff">[48;2;2;3;10m</text>
<text x="1494" y="68" fill="#e8fbff">··○······   │</text>
<text x="639" y="85" fill="#e8fbff">[38;2;46;162;164m</text>
<text x="1494" y="85" fill="#e8fbff">○········   │</text>
<text x="306" y="102" fill="#e8fbff">[48;2;2;3;10m</text>
<text x="423" y="102" fill="#2ea2a4">                                    /</text>
<text x="756" y="102" fill="#b6b1b9">/</text>
<text x="810" y="102" fill="#6ea4a8">\</text>
<text x="1296" y="102" fill="#e8fbff">[48;2;2;3;10m</text>
<text x="1458" y="102" fill="#e8fbff">;46;162;164m    │</text>
<text x="9" y="119" fill="#2ea2a4">                                                                    /</text>
<text x="954" y="119" fill="#e8fbff">[38;2;46;162;164m</text>
<text x="1494" y="119" fill="#e8fbff">·········   │</text>
<text x="639" y="136" fill="#91a6ac">-</text>
<text x="1494" y="136" fill="#e8fbff">·········   │</text>
<text x="279" y="153" fill="#e8fbff">[48;2;2;3;10m</text>
<text x="1269" y="153" fill="#e8fbff">[48;2;2;3;10m</text>
<text x="1458" y="153" fill="#e8fbff">;46;162;164m</text>
<text x="1584" y="153" fill="#e8fbff">  │</text>
<text x="9" y="170" fill="#2ea2a4">                                                                     \\</text>
<text x="648" y="170" fill="#cdb3bd">-</text>
<text x="693" y="170" fill="#2ea2a4">/                       --</text>
<text x="927" y="170" fill="#e8fbff">[38;2;46;162;164m</text>
<text x="1494" y="170" fill="#e8fbff">·········   │</text>
<text x="594" y="187" fill="#e8fbff">[48;2;2;3;10m</text>
<text x="711" y="187" fill="#2ea2a4">                                /</text>
<text x="1062" y="187" fill="#5ec4b8">\</text>
<text x="1494" y="187" fill="#e8fbff">·········   │</text>
<text x="1242" y="204" fill="#e8fbff">[48;2;2;3;10m</text>
<text x="1458" y="204" fill="#e8fbff">162;164m</text>
<text x="1557" y="204" fill="#e8fbff">     │</text>
<text x="297" y="221" fill="#2ea2a4">                                                                \</text>
<text x="900" y="221" fill="#e8fbff">[38;2;145;175;187m</text>
<text x="1116" y="221" fill="#2ea2a4">/</text>
<text x="1503" y="221" fill="#e8fbff">ATION RNG  │</text>
<text x="567" y="238" fill="#e8fbff">[48;2;2;3;10m</text>
<text x="1053" y="238" fill="#60a6ad">/</text>
<text x="225" y="255" fill="#e8fbff">[38;2;46;162;164m</text>
<text x="387" y="255" fill="#2ea2a4">                                            /</text>
<text x="819" y="255" fill="#2ea2a4">\</text>
<text x="1458" y="255" fill="#e8fbff">164m</text>
<text x="1530" y="255" fill="#e8fbff">────────╯</text>
<text x="873" y="272" fill="#e8fbff">[38;2;46;162;164m</text>
<text x="1035" y="272" fill="#2ea2a4"> \</text>
<text x="1053" y="272" fill="#b6d8b8">-</text>
<text x="1062" y="272" fill="#cde4bb">-</text>
<text x="1071" y="272" fill="#2ea2a4">//</text>
<text x="540" y="289" fill="#e8fbff">[48;2;2;3;10m</text>
<text x="657" y="289" fill="#2ea2a4">          \</text>
<text x="774" y="289" fill="#2ea2a4"> /</text>
<text x="198" y="306" fill="#e8fbff">[38;2;46;162;164m</text>
<text x="1188" y="306" fill="#e8fbff">[38;2;46;162;164m</text>
<text x="9" y="323" fill="#2ea2a4">                                                                       /</text>
<text x="855" y="323" fill="#e8fbff">[48;2;2;3</text>
<text x="936" y="323" fill="#9acab4">--</text>
<text x="513" y="340" fill="#e8fbff">[38;2;46;162;164m</text>
<text x="675" y="340" fill="#2ea2a4">                |</text>
<text x="846" y="340" fill="#2ea2a4">\</text>
<text x="1098" y="340" fill="#2ea2a4">\</text>
<text x="171" y="357" fill="#e8fbff">[38;2;46;162;164m</text>
<text x="873" y="357" fill="#2ea2a4">                 |</text>
<text x="1161" y="357" fill="#e8fbff">[38;2;46;162;164m</text>
<text x="9" y="374" fill="#2ea2a4">                                                -  -              ---</text>
<text x="675" y="374" fill="#2ea2a4">/ -</text>
<text x="720" y="374" fill="#2ea2a4"> --</text>
<text x="828" y="374" fill="#e8fbff">[48;2;2;3;10m</text>
<text x="1062" y="374" fill="#2ea2a4">/</text>
<text x="486" y="391" fill="#e8fbff">[38;2;51;183;203m</text>
<text x="657" y="391" fill="#2ea2a4">\              \</text>
<text x="819" y="391" fill="#2ea2a4">|  /</text>
<text x="864" y="391" fill="#2ea2a4">                     -</text>
<text x="1062" y="391" fill="#91c0ab">-</text>
<text x="153" y="408" fill="#e8fbff">[48;2;2;3;10m</text>
<text x="396" y="408" fill="#2ea2a4">            /</text>
<text x="630" y="408" fill="#33b3c2">\</text>
<text x="639" y="408" fill="#2ea2a4">               \</text>
<text x="801" y="408" fill="#2ea2a4">/</text>
<text x="1143" y="408" fill="#e8fbff">[48;2;2;3;10m</text>
<text x="9" y="425" fill="#2ea2a4">                                         /</text>
<text x="522" y="425" fill="#33b3c1">\</text>
<text x="801" y="425" fill="#e8fbff">[38;2;46;162;164m</text>
<text x="369" y="442" fill="#2ea2a4">\</text>
<text x="459" y="442" fill="#e8fbff">[38;2;77;186;240m</text>
<text x="126" y="459" fill="#e8fbff">[48;2;2;3;10m</text>
<text x="1116" y="459" fill="#e8fbff">[48;2;2;3;10m</text>
<text x="522" y="476" fill="#2ea2a4">/</text>
<text x="774" y="476" fill="#e8fbff">[38;2;46;162;164m</text>
<text x="351" y="493" fill="#2ea2a4"> /  \</text>
<text x="513" y="493" fill="#2ea2a4">/</text>
<text x="1494" y="493" fill="#e8fbff">;2;3;10m</text>
<text x="1575" y="493" fill="#e8fbff">62;16</text>
<text x="0" y="510" fill="#e8fbff">4</text>
<text x="99" y="510" fill="#e8fbff">[48;2;2;3;10m</text>
<text x="1089" y="510" fill="#e8fbff">[38;2;46;162;164m</text>
<text x="9" y="527" fill="#2ea2a4">                                                 -</text>
<text x="414" y="544" fill="#e8fbff">[38;2;46;162;164m</text>
<text x="1494" y="544" fill="#e8fbff">2;2;3;10m</text>
<text x="9" y="561" fill="#2ea2a4">        [0m</text>
<text x="1071" y="561" fill="#e8fbff">[48;2;2;3;10m</text>
<text x="729" y="578" fill="#e8fbff">[38;2;46;162;164m</text>
<text x="396" y="595" fill="#e8fbff">[48;2;2;3;10m</text>
<text x="1494" y="595" fill="#e8fbff">2;164m</text>
<text x="54" y="612" fill="#e8fbff">[38;2;46;162;164m</text>
<text x="1044" y="612" fill="#e8fbff">[38;2;46;162;164m</text>
<text x="711" y="629" fill="#e8fbff">[48;2;2;3;10m</text>
<text x="369" y="646" fill="#e8fbff">[38;2;46;162;164m</text>
<text x="1494" y="646" fill="#e8fbff">162;164m</text>
<text x="36" y="663" fill="#e8fbff">[48;2;2;3;10m</text>
<text x="1026" y="663" fill="#e8fbff">[38;2;46;162;164m</text>
<text x="0" y="697" fill="#e8fbff"> ╭────────────────────────────────────────────────────────────────────────────────────────────────────────────────────────────────────────────────────────────────────────────────╮</text>
<text x="0" y="714" fill="#e8fbff"> │  SPD 17.040;116H</text>
<text x="477" y="714" fill="#e8fbff">  0/20  FUEL 7/7  ALERT YELLOW  LOCK CORIOLIS                                                                                │</text>
<text x="0" y="731" fill="#e8fbff"> │                                                                                                                                                                                │</text>
<text x="0" y="748" fill="#e8fbff"> │ SHIELD  FORE ▰▰▰▰▰▰▰▰▰▰▰▰  AFT ▰▰▰▰▰▰▰▰▰▰▰▰                                                                                                                                    │</text>
<text x="0" y="765" fill="#e8fbff"> │ CORE    ENER ▰▰▰▰▰▰▰▰▰▰▰▰  HULL ▰▰▰▰▰▰▰▰▰▰▰▰  LASER ▰▰▰▰▰▰▰▰▰▰▰▰                                                                                                               │</text>
<text x="0" y="782" fill="#e8fbff"> │ VECTOR  PIT ────◆────  ROL ────◆────  YAW ────◆────                                                                                                                            │</text>
<text x="0" y="799" fill="#e8fbff"> │ MARKET  LAVE   BUY 28  SELL 42  FUEL 14  IN FLIGHT                                                                                                                             │</text>
<text x="0" y="816" fill="#e8fbff"> │ TRADE   B buy cargo  V sell cargo  R refuel  H jump                                                                                                                            │</text>
<text x="0" y="833" fill="#e8fbff"> │ COMBAT  Space laser  M missile  C dock  ? help  1/2/3 ASCII  E/F/I render  Q quit                                                                                              │</text>
<text x="0" y="850" fill="#e8fbff"> │ MOUSE   Left-drag look  Wheel throttle  Right-click target                                                                                                                     │</text>
<text x="0" y="867" fill="#e8fbff"> │ &gt;&gt; ASCII FILL OFF                                                                                                                                                              │</text>
<text x="0" y="884" fill="#e8fbff"> ╰───────────────────────────────────────────────────────────────────────────────────────────────────────────────────────────────────────────────────────────────────────────────╯╯</text>
</svg>